/* XPM */
static char *d5756ee344524d4ebfd72716b7c80af59bfVzTfXl6T4zWrA[] = {
/* columns rows colors chars-per-pixel */
"64 64 82 1 ",
"  c None",
". c #101010",
"X c gray9",
"o c gray11",
"O c #1E1E1E",
"+ c #312B1F",
"@ c #3E3216",
"# c #3F3416",
"$ c #39301B",
"% c #3F351D",
"& c #292621",
"* c #413B25",
"= c #413D28",
"- c #423E2B",
"; c #423F2D",
": c #403F32",
"> c #3D423C",
", c #404947",
"< c #434B4A",
"1 c #464E4C",
"2 c #4E5551",
"3 c #545B56",
"4 c #5C635D",
"5 c #5F655F",
"6 c #616761",
"7 c #626B67",
"8 c #646E6A",
"9 c #65706C",
"0 c #67726F",
"q c #697471",
"w c #717D7C",
"e c #717F7F",
"r c #917817",
"t c #957A15",
"y c #977D19",
"u c #9F841E",
"i c #A48313",
"p c #B08F16",
"a c #B79619",
"s c #BC9A1A",
"d c #A08620",
"f c #A8912E",
"g c #A99636",
"h c #C29F1B",
"j c #C8A31C",
"k c #CBA71F",
"l c #EAB50C",
"z c #ECBB0B",
"x c #F3B70C",
"c c #F3BA0C",
"v c #E3B81E",
"b c #CEAB21",
"n c #D3AF24",
"m c #D7B426",
"M c #F1C60B",
"N c #F3D00C",
"B c #F5D50C",
"V c #F8DC0C",
"C c #F8DE1C",
"Z c #FAE00C",
"A c #FAE00E",
"S c #A79740",
"D c #A59844",
"F c #A59A54",
"G c #A8A278",
"H c #728386",
"J c #778688",
"K c #7D898C",
"L c #7E8A8D",
"P c #838D90",
"I c #8D9497",
"U c #999E9E",
"Y c #AAA78A",
"T c #ACAA95",
"R c #A1A4A3",
"E c #A6A8A6",
"W c #A9ABA8",
"Q c #ACAEA9",
"! c #B1B2AD",
"~ c #E8E3BE",
"^ c #E9E6D1",
"/ c #ECEBE0",
/* pixels */
"                                                                ",
"                            /^^^^^                              ",
"                         IPP$+++++5P!                           ",
"                      ^J>%>yhhhhhpr@%>!                         ",
"                ^^   U3rphmNZZZZZCvhhir0^                       ",
"              !J*r5J6rhMNZZZZZZZZZZZZNMstU                      ",
"            ^-rtirO#fvCZZZZZZZZZZZZZZZZCMs2^                    ",
"           3ubMvt-#hNZZZZZZZZZZZZZZZZZZZZNh0^                   ",
"         !5pMZNp*rhCZZZZZZZZZZZZZZZZZZZZZZCm2!                  ",
"        ^$fNZCa-rMCZZZZZZZZZZZZZZZZZZZZZZZZCh;^                 ",
"       /1tNZZm;rvZZZZZZZZZZZZZZZZZZZZZZZZZZZVS2                 ",
"       5uNZZNd;bCZZZZZZZZZZZZZZZZZZZZCNNBBNBBvr!                ",
"      qrvZZCh#tNZZZZZZZZZZZZZZZZCNNNNNMMcccccck-^               ",
"     /;nZZZvr#mZZZZZZZZZZZZZZZCBNMcczccccccccccjU               ",
"     3hCZZCh;pNZZZZZZZZZZZZCCNNMcccccccccccccccciQ              ",
"    ^rNZZZNi#vZZZZZZZZZZZZCNMMzcccccccccccczccccl;              ",
"    !gCZZZMrrNZZZZZZZZZZZCMMccczzccccccccccczccczt!             ",
"    TnZZZZn-DCZZZZZZZZZCBMczcxxzzzzzzzzcccccccccclr             ",
"    ;nZZZZb*gCZZZZZZZZZNMcxcccccccccccccccccccccczs~            ",
"    ;nZZZNt#MZZZZZZZZZNMccxcccccccccccccccccccccccb!            ",
"    %pmmmb;rNZZZZZZZZCMcxcxxccccccccccccccccccccccvr            ",
"    w%1222OrNZZZZZZZZNccxxxxccccccccccccccccccccccxa~           ",
"  ^w><<>O..rNZZZZZZZCMcccxxxccccccccccccccccccccccckJ           ",
"  27E!I7>%+DCZZZZZZZNccccccccccccccccccccccccccccccl-           ",
" 5H!Rw2:-t#bCZZZZZZCMcxcccxcccccccccccccccccccccccccp           ",
" J24<O%6pa#nZZZZZZZNccccccccccccccccccccccccccccccccaW          ",
"  PL/5rMND;vZZZZZZCMccccccccccccccccccccccccccccccccjU          ",
"     !rzNF;vZZZZZZNcxccccccccccccccccccccccccccccccclr          ",
"      -pzD-vZZZZZCMcxccccccccccccccccccccccccccccccczd          ",
"      Erls#nZZZZZCMccccccccccccccccccccccccccccccccccd          ",
"       -sl#hCZZZZNccccccccccccccccccccccccccccccccccct!         ",
"       Lil#rNZZZCNccccccccccccccccccccccccccccccccccxiW         ",
"       ^rj#rNZZZZNcxccccccccccccccccccccccccccccccccxa!         ",
"        6t#rVZZZZNcxcccccccccccccccccccccccccccccccccl!         ",
"        /#r-vZZZNMcccccccccccccccccccccccccccccccccccv~         ",
"         qr*gCZZNMccccccccccccccccccccccccccccccccccclG         ",
"          *ODCZZNcccccccccccccccccccccccccccccccccccclr         ",
"          IXrMZZNcccccccccccccccccccccccccccccccccccclr         ",
"           &#vZCMcccccccccccccccccccccccccccccccccccclr         ",
"           !%hCCMcccccccccccccccccccccccccccccccccccclr         ",
"            PrNCMccccccccccccccccccccccccccccccccccccs3         ",
"            ^*bCMcccccccccccccccccccccccccccccccccccxiW         ",
"             !fNccccccccccccccccccccccccccccccccccccciW         ",
"              8kccccccccccccccccccccccccccccccccccccxiW         ",
"              QixccccccccccccccccccccccccxllccccccccxiW         ",
"               Flccccccccccccccccccccccxlarszcccccccxt!         ",
"                sccccccccccccccccccccczjr##jccccccccl8          ",
"                Glccccccccccccccccccczj-JJrvccccccccj;          ",
"                ^jccccccccccccccccccliT!  ;sxcccccccs:          ",
"                 Dlcccccccccccccczlh!/    WrlcccccccpU          ",
"                 !hcccccccccccxzkiY        >scccccclr!          ",
"                  Glxcccccccclji8E         Wrlcccclp-           ",
"                  !sccccccccckr3/           %pccxjd;U           ",
"                   rzccccccccjI             P-asp-11/           ",
"                   ^jxcccccccs!             ^&$wW^              ",
"                    FlcccccccsU                                 ",
"                    !acccccccs*                                 ",
"                     rlccccccj*                                 ",
"                     !axcccljp*                                 ",
"                      Dlljsr@,4                                 ",
"                      Qtt#%J!^                                  ",
"                       $5I                                      ",
"                       ^                                        ",
"                                                                "
};
