/* XPM */
static char *_a693b369cdc4c76835231b28fd5931chu7G2tVqAnQfoJyn[] = {
/* columns rows colors chars-per-pixel */
"64 64 218 2 ",
"   c #323235",
".  c #3D3A36",
"X  c #3C3C3B",
"o  c #393537",
"O  c #2D2E34",
"+  c #423B3A",
"@  c #413B37",
"#  c #47443D",
"$  c #3F3F43",
"%  c #4B4A44",
"&  c #4C4846",
"*  c #524B47",
"=  c #4E504C",
"-  c #57564C",
";  c #5D5553",
":  c #595853",
">  c #615A55",
",  c #665D5A",
"<  c #63645B",
"1  c #6B645D",
"2  c #6D6A5D",
"3  c #676255",
"4  c #6A6964",
"5  c #736D64",
"6  c #756B67",
"7  c #747466",
"8  c #75736B",
"9  c #7A746B",
"0  c #76786B",
"q  c #7D7A6D",
"w  c #7A7366",
"e  c #7E7C71",
"r  c #827C6E",
"t  c #827D73",
"y  c #867E78",
"u  c #83816E",
"i  c #848274",
"p  c #898977",
"a  c #858479",
"s  c #8A867A",
"d  c #8C8B7C",
"f  c #888777",
"g  c #918D7E",
"h  c #91927F",
"j  c #8E907E",
"k  c #8D8D83",
"l  c #8D8985",
"z  c #908684",
"x  c #928B84",
"c  c #9B8986",
"v  c #968C8A",
"b  c #9B8D8A",
"n  c #988784",
"m  c #8F9082",
"M  c #939385",
"N  c #94958B",
"B  c #9A938C",
"V  c #96998B",
"C  c #9B9C8D",
"Z  c #989A86",
"A  c #9D9493",
"S  c #9D9C94",
"D  c #9F9A99",
"F  c #969993",
"G  c #A1928E",
"H  c #A29593",
"J  c #A29996",
"K  c #A39C9A",
"L  c #A99E9A",
"P  c #9DA193",
"I  c #9EA19A",
"U  c #9FA18F",
"Y  c #A1A38D",
"T  c #A2A395",
"R  c #A4A49D",
"E  c #AAA29D",
"W  c #A5A99C",
"Q  c #ABAC9C",
"!  c #A6A796",
"~  c #B0A49F",
"^  c #B1B49D",
"/  c #A49FA1",
"(  c #A6A5A1",
")  c #A9A5A3",
"_  c #A6AAA4",
"`  c #ABABA5",
"'  c #AAA6A9",
"]  c #A7A9A8",
"[  c #ABABAB",
"{  c #A7A6A9",
"}  c #B2ADAA",
"|  c #B3AAA3",
" . c #ACB2A5",
".. c #AEB1AA",
"X. c #B2B5A5",
"o. c #B5B9A7",
"O. c #B3B4AC",
"+. c #BAB4AC",
"@. c #B5B9AD",
"#. c #BABCAD",
"$. c #AEADB2",
"%. c #B2AEB4",
"&. c #B4B2B6",
"*. c #B6B9B2",
"=. c #BABDB4",
"-. c #B5B4B9",
";. c #B9B5BB",
":. c #B7BABD",
">. c #B9BBBD",
",. c #B9B7B2",
"<. c #AFB1B3",
"1. c #C1BBB7",
"2. c #C0B5AF",
"3. c #BAC0AD",
"4. c #BCC2B5",
"5. c #BDC3BB",
"6. c #BEC9BC",
"7. c #B7C0B2",
"8. c #C3C6AF",
"9. c #C2C4B4",
"0. c #C2C5BD",
"q. c #C3CABD",
"w. c #CACCBE",
"e. c #C7C7B9",
"r. c #C8D1BC",
"t. c #BABDC2",
"y. c #BDBECA",
"u. c #BCC3C4",
"i. c #BFC9C1",
"p. c #BFC4C9",
"a. c #C1C6C2",
"s. c #CBC7C1",
"d. c #C3CBC3",
"f. c #CACCC4",
"g. c #C1C5CB",
"h. c #C3CBCC",
"j. c #C9CEC9",
"k. c #C6D1C4",
"l. c #CAD2C6",
"z. c #C6D2CA",
"x. c #CBD3CC",
"c. c #CDD9CD",
"v. c #D4D5CC",
"b. c #D3DBCD",
"n. c #D9DCCD",
"m. c #D2D5C6",
"M. c #C5CCD3",
"N. c #C9CED6",
"B. c #C6D1D3",
"V. c #CCD5D1",
"C. c #CEDAD3",
"Z. c #CCD4DA",
"A. c #CEDADB",
"S. c #D4D6D0",
"D. c #D3DBD3",
"F. c #D9DED5",
"G. c #D3DCDA",
"H. c #DCDFDA",
"J. c #D9D6D0",
"K. c #D6E1D5",
"L. c #DBE1D4",
"P. c #D6E2DB",
"I. c #DBE4DB",
"U. c #DDE9DE",
"Y. c #DCE0CE",
"T. c #E2E5DB",
"R. c #E3E9DD",
"E. c #E5E8D6",
"W. c #EBF0DF",
"Q. c #D4DEE2",
"!. c #CFE1E1",
"~. c #D6E3E3",
"^. c #DBE5E2",
"/. c #DDEAE3",
"(. c #DAE6E9",
"). c #D5E9E9",
"_. c #DBECEC",
"`. c #D7E4E9",
"'. c #DEF1EE",
"]. c #DDEEF2",
"[. c #DFF1F3",
"{. c #E2E6E1",
"}. c #E3ECE3",
"|. c #EAEEE5",
" X c #E3EDEB",
".X c #EAEFE9",
"XX c #E5F0E6",
"oX c #EBF1E6",
"OX c #E5F2EB",
"+X c #EBF4EC",
"@X c #EDF9EE",
"#X c #F2F5ED",
"$X c #F3FAEE",
"%X c #F5F8E9",
"&X c #E2EFF2",
"*X c #E4F3F2",
"=X c #EBF5F3",
"-X c #E5F9F4",
";X c #EDF9F3",
":X c #ECF7F8",
">X c #EEFAF9",
",X c #F2F6F3",
"<X c #F7FBF4",
"1X c #F5FAF6",
"2X c #F3FDF6",
"3X c #F6FDF6",
"4X c #F4FBF3",
"5X c #F8FBF4",
"6X c #FAFBF7",
"7X c #F8FCF5",
"8X c #FAFDF7",
"9X c #F9FDF6",
"0X c #F9FCF5",
"qX c #F6FDFA",
"wX c #F4FBFA",
"eX c #F9FCF9",
"rX c #F9FCFA",
"tX c #F4F7F9",
/* pixels */
"wXwXwXwXwXwXwX2X2X3X3X3X2X2X4X4X6X7X7X6X6X6X6X7X7X7X7X7X7X7X7X7XrX7X7X7X7X7X7X7X7X6X6XqXqXwXwX>X>X;X-X-X[.[.*X'._.).~.~.A.A.A.A.",
"wXwXwXwXwXwXwX2X3X3X3X3X3X3X4X4X7X7X7X7X6X6X6X6X7X7X7X7X7X7X7X7X7X7X7X7X7X7X7X7XrXrXqXqXqXwXwX>X>X;X-X-X*X*X*X*X_._._.~.~.!.!.!.",
"wXwXqXqXqXwXwXwX3X3XwXwX3X3X3X7X5X5X7X7X7X6X4X4X4X5X5X7X7XrX7XrX7X7X4X4X3X7X3X7X7XrX4X4XqXwXwXwX>X;X-X-X*X*X*X*X-X*X[._.).).).).",
"wXwXrXrXqXwXwXwX3XrXwXwXwX3X4X5X5X5X7X7X7X6X4X4X4X4X6X7X7X7X7X6X7X3X4X4X3X3X4X4X4X4X,X;X=X=XtX;X=X-X-X-X*X:X:X:X*X*X*X[._._._._.",
"rXrXrXqXwXwXwX3X3XrXrXrXwX4X4X4X4X5X7X7X6X6X4X4X4X3X3X3X7X6X6X4X4X4X4X4X3X3X4X4X,X@XOX+XOXOX=XOXXXXX'.*X*X=X:X:X-X-X*X*X[.].].].",
"rXrXrXqXwXwX3X3X3XwXrXwXqX,X#X#X#X$X5X5X4X4X,X,X4X4X4X3X3X4X4X4X4X4X4X4X4X4X,X+X.X}.}.^./.}.}.}./.^./.`._. X XOXOX*X*X*X*X].].].",
"rXrX6X6XqX3X3X3X4X4X4XtX,X=X.X|.|.oX#X#X#XoX+XoX@X$X,X,X2X3X3X4X4X4X3X4X4X#X+X}.I.F.G.D.G.G.F.G.G.D.C.C.G.H.^./. X X X X X].].[.",
"rX6X6X4X4X,X#XoX|.}.{.^.{.{.T.T.T.T.}.|.}.{.T.}.XX+X@X;X;X4X4X4X4X4X3X,X#XoX}.I.D.c.x.z.z.z.z.j.d.d.5.5.5.a.d.j.V.G.P.`.(._.].[.",
"rX6X4X,X#XoXT.F.v.d.0.5.d.f.m.m.v.v.J.D.D.D.D.F.U.}.XX+X@X@X4X4X2XtXtX,X+X}.I.D.l.z.d.d.d.0.5.=...` I I I I I R ..=.a.V.G.~.].&X",
"4X,XoX|.T.D.f.9.=.O.` ` ` X.o.#.1.9.s.f.d.d.d.c.P./.XXOX+X@X@X4X2XtXtX;X.XI.D.l.d.d.d.5.5.*..._ W I F N k k k k N I ..:.h.A.`.].",
"#XoXT.b.w.#.Q W W W R S C N M B T | +.=.=.5.0.k.D.U.}.XX@X@X@X4X2X>X;XOX/.G.V.j.d.d.5.5.*.[ I S I I D F k k d d k k N R *.h.A.~.",
"|.R.b.e.X.T Z M C S K S x a e t x C Q O.@.=.5.d.D.I.}.XX@X@X@X4XwX>X;XOX^.G.V.h.a.a.5.=...R N k N N N l a e i s a d k V _ :.h.A.",
"R.L.w.o.T M m k x B K J x t 9 9 t d S ` O.=.5.d.C.P./.XX@X;X;X2XwXwX:X&X^.A.B.h.a.5.5.*.` S k a e q 7 4 < < 9 i p d m Z I ..i.z.",
"T.n.9.Q Z j d s t y l l t 8 5 5 8 t x T X.4.q.l.D.P./.XX@X;X4X2XwX>X:X&X`.A.B.h.a.5.=.O.R N a 8 2 : - = % - 2 q i d h M P  .5.l.",
"E.n.8.Q Z h d t 2 > ; ; > , 1 5 w q a B X.9.f.c.D.P.I.}.+X;X4X2XwXwX:X&X~.A.M.h.a.5.=.` C s 9 1 - % X o . # - 2 u d d M S  .q.x.",
"E.n.9.Q C h d 9 ; # + + * ; 1 6 8 q t M ` e.l.D.P.I./.}.+X;X4X4X2X2X=X X~.A.h.h.a.=.@.R M t w 3 % .       # - 2 u d d M S  .d.c.",
"W.Y.8.^ Y M s 5 * + . + * ; 1 6 9 r r d Q 9.m.L.U././.XX+X;X4X2X2X;X=X X~.A.h.a.5.*.` S d r w 3 % .     X = 2 q i d d M T O.d.D.",
"oXE.e.X.! Z s 5 * . o + & ; 5 9 t t q p ! 4.m.U.}.}. XXX+X;X,X4X4X;XOX_.~.A.V.d.5.@.! B s r w 1 * X     X = 4 e i s k N R @.l.F.",
"%XE.w.o.Q C d 8 - @ o . # ; 6 y s s q i P 3.b.R.}.}. XOX+X@X$X$X$X@XOX_.~.G.C.l.5.O.T M s r r 5 : &   O o % < 7 t s k C R =.c.I.",
"#XR.m.=.X.T M e : # @ + & > 9 s x s r f P 3.b.}.XXXXOXOX@X$X$X$X$X@XOX X`.P.D.c.d.@.T M s i t 9 4 : $ o X % : 5 q s x S ` 5.D./.",
"$X|.n.w.#.Q S a < % # # - 1 y x x g p h ! 4.b.}.+X+XOX+X@X$X$X$X,X;X+XXX/./.I.D.l.=.R M a i i t 9 4 : = = - < 7 e s M S O.d.G.}.",
",X+XT.b.9.X.! m 8 < - - 1 9 d B B B B C  .6.b.}.+X@X@X@X,X$X$X$X4X,X=XOX X/.I.K.b.0.` C d a p a i 0 4 < < < 7 q i k C W =.x.^. X",
",X$XoXT.l.#.Q C d e 7 7 i d B J ! ! !  .7.k.K.}.oX+X;X,X4X4X$X$X4XtX;X+XXX}./.I.D.d.@.W V M j d f i q 0 7 0 e a d N W *.j.G.}. X",
"3X4X$XoXF.w.#.Q S M d d M C ! | +.#.=.e.k.b.I.}.oX+X;X,X4X4X$X$X4X4XtX;X+XXX}.U.K.c.0.@. .W T C Z M d p f f d M Z ! @.d.D.^. X*X",
"6X7X7X#X|.L.l.4.X.! C Z U Q +.9.s.v.D.F.I.U.R.XX+X@X$X4X$X7X$X4X7X3XtX;X+XOXXX}.U.L.b.x.l.d.9.#.^ ! Y Z Z Z Z T Q =.l.F.U. X*X=X",
"6X6X6X6X,X|.T.v.w.4.o.X.o.9.w.v.H.{.|.+X+XoXoX+X+X$X$X4X4X5X4X4X7X7X4XtX@X+XXXXX}.}.U.U./.U.L.m.r.8.3.o.o.o.o.#.0.x.I.}..XOX:X:X",
"4X6X6X6X6X5X#X|.T.F.b.b.n.L.E.}.#X#X,X,X;X@X@X@X$X$X4X4X$X5X4X3X7X7XwX4X;X+X+XXXOXXXXXOXOX+XoXW.W.E.E.L.n.n.b.D.F.U.XX+X;X;X>X>X",
"7X6X6X6XrXrX6X6X#XoXoXoXoX#X#X#X6X7X4X3X2X2X,X,X4X4X4X4X5X5X4X3X7XrXwX4X,X@X+X+X+X+X;X;X;XtX4X4X$X%X%X#X#XoXoX|.+XOX;XtXtX;X>X>X",
"7X7X7X7XrX6X6X6X4X4X,X4X4X5X6X6X6X7XrXwX3X2X4X4X4X4X3X7X5X5X4X4XwXwXqX4X,X@X+X+X+X;X;X>XwXwXwX3X7X5X4X4X4X4XtXtXtXtXtX2XwX>X;X=X",
"7X7X7X7X7X7X6X7X7X3X3X7X7X7XrX7X6X6X7XrXwXwXqX4X3X3X7X7X7X5X6X4XwXwXqX4X,X@X+X+X+X;X>X>XwXwXwXwX3XqXqXqXwXwXwXwXwXwX>X;X>X;XOXXX",
"5X4X4X6X7X7X7X3X3X3X3X3X7X7X7X6X6X6X6X6XrXrXqXqX4X4X6X7X7X7X3X3XqXqXqX4X,X@X+X+X+X:X>X>X>XwXqXqXqXqXqXqXqXqXqXqXwXwX;X=X=XXX/./.",
"4X,X4X4X4X4X3X3X3X3X3X3X7X7X7X7X6X6X6X6X8X6XqXtX,X,XqX6X4X3X3XwXwXqXqX4X,X@X+X+XOX=X>X>X>XwXwXqXqXwXwXwXwXwX:X=X:X=XOXXX}./.P.D.",
"@X@X#X#X4X4X4X4X3X3X3X3X7X7X7X7X7X7X7X7X7X6XqX,X,X,XtXqXqX4X4X3XwXwXwX4X,XoX|..X X*X:X>X>XwXwXwXwXwXwXwX>X:XOX X X X/.P.K.C.x.z.",
"|.oXoXoX+X#X#X,X,X,X3X3X3X7X7X7X7X7X7X7X7X4X4X,X,X=X,X,X,XtXtXtXtXtXtX,X@X+X}.}. X*X:X>X>X>XwXtX;X;X;X:XOX X/.^.^.~.G.C.x.z.h.i.",
"R.R.}.}.}.}.|.+X+X@X,X,X4X4X4X4X3X7X7X7X7X3X4X4X,X=X=X=X,X,X;X,X,X,X;X@XXX}.}.}.}. X=X:X:X=X;X;X+XOXXX}.^.P.D.C.C.C.V.h.j.a.p.u.",
"L.L.I.I.I.I.U.{.}.|.+X+X@X#X,X4X4X4X3X3X3X3X4XtX,X+X.X.X.X+X+X+X+XOX+X}./.I.P.I.^.}.OX=X=X=X;XOXXX}./.I.D.C.c.z.z.z.h.h.p.p.u.u.",
"b.b.D.J.S.S.D.F.I.U.}.}.}..XoX@X,X4X4X4X3X4X,X@X.X}.}.}.}.}.}.}.}.}.}.U.F.D.c.c.F.^..X+X=X-XOXOX/.I.P.D.C.z.z.z.j.h.g.u.u.t.t.t.",
"l.l.l.l.j.j.l.c.D.F.U.U.}.}.+X@X,X,X,X,X4X,X$X+X}.U.I.F.I.H.H.H.T.H.H.D.c.d.d.j.D.U.}.+X=X-XOX'./.I.P.C.V.z.z.h.h.g.p.u.t.t.t.t.",
"q.q.q.d.q.d.d.j.c.D.I.U.}.XX+X@X@X,X4X4X4X$X$XoXU.D.v.v.v.J.v.v.J.v.v.j.d.0.5.d.D.^.OX=X-X*XOX_.(.~.P.A.A.Z.B.h.h.g.u.u.t.t.t.t.",
"5.5.5.6.6.q.d.d.x.D.I.}.XX+X+X@X;X4X4X4X4X$X$XoXT.D.j.e.e.e.s.s.s.s.e.1.*.*.=.d.F.}.OX-X*X*X_._.(.`.~.~.Q.A.Z.N.M.g.u.u.t.t.y.y.",
"4.6.6.6.6.6.q.l.b.P./.XX+X@X@X;X;X4X4X4X4X4X4X$XoXL.f.=.} } +.2.2.+.+.} ` [ *.a.P. X*X*X_._._._.(.(._.(.`.Q.G.Z.M.p.u.u.t.t.y.y.",
"5.4.4.4.4.6.q.l.D.U.XX+X@X;X;X;X;X;X@X@X$X4X4X4X+XT.j.+.E J ~ | | ~ ) ) K ( -.a.G._. X_.(.~.~.~.~.`.(.(.`.Q.G.Z.M.p.u.u.u.u.u.p.",
"5.5.4.4.4.6.k.c.K.}.XX+X;X;X;X;X@X+XXX}.XX+X@X#X+XR.v.1.E B H H H J K K K ` -.a.C.~.~.Q.G.Z.A.A.G.G.Q.Q.Q.Z.Z.N.h.p.p.u.u.u.p.p.",
"5.5.=.4.4.6.k.c.I.}.XXOXOXOXOXOXXXXX/.^.U.{.}.}.}.U.D.9.E G b b b G H K ( [ *.i.z.Z.Z.Z.N.N.N.N.Z.Z.Z.Z.Z.Z.N.M.h.p.p.u.u.u.p.g.",
"0.5.4.=.5.6.k.C.I./.}.}./././././.I.I.P.F.F.F.I.I.F.v.e.} L G c c b H K ) O.*.5.h.h.M.M.M.M.M.M.M.M.N.N.N.M.M.M.h.p.u.u.t.y.p.g.",
"e.5.5.>.5.i.z.c.K.I.U.U.^.I.^.P.G.G.G.D.D.c.c.V.c.l.f.9.+.E G c n b H L ) [ *.>.u.p.g.g.g.g.g.g.g.g.h.h.h.h.h.h.p.p.u.u.t.y.g.g.",
"5.5.5.5.5.i.d.x.D.K.P.P.P.G.G.D.D.C.C.V.V.x.j.j.d.0.=.,.} E H b c v H K R ` [ *.-.:.y.y.y.y.y.y.y.y.p.u.p.p.p.p.u.u.p.u.u.g.g.g.",
"5.5.5.5.5.i.d.z.x.D.D.D.D.S.c.c.z.z.z.z.j.d.a.5.=.*.O.} ` E H v n b B H K ( ` [ <.-.:.t.t.t.t.t.t.t.t.t.u.u.u.u.u.u.u.p.g.g.g.g.",
"9.0.5.5.5.6.d.k.l.l.l.l.j.f.d.d.d.d.a.a.5.>.*.....` ( R E K A v z n b H J K ) ' [ %.&.&.&.&.-.:.:.:.:.:.t.t.t.u.u.u.u.u.u.g.g.g.",
"0.0.0.5.5.6.d.d.d.d.d.0.0.0.0.0.5.5.5.>.*.O.[ _ ( R K K K J A v z z v B H J / ) ' [ [ %.$.%.&.&.-.-.-.-.:.t.>.>.u.u.u.u.u.u.a.a.",
"0.0.a.0.q.6.5.5.5.5.4.4.4.5.=.=.=.=.=.*.O.[ _ R R K K K J H b v z z x v A A J K ) ) ' ' ' [ %.&.-.-.:.:.:.t.>.:.>.>.>.t.t.t.t.t.",
"0.0.0.0.5.5.5.4.=.=.*.#.=.=.*.*.=.*.*.O..._ R R K K J K J A b x z z v v A A J J K K ( ) ) ' $.%.&.-.-.:.:.:.:.:.:.:.>.:.:.:.:.;.",
"0.0.0.5.5.=.*.*.@.@.@.O.@.O.O.O.@.O.O...` ( R R S J J J H A B v v v v A A A A A J J K K ) ' [ $.%.&.&.-.:.:.:.:.:.:.:.:.:.:.;.;.",
"0.5.5.5.=.*.@.O.@.O.O.O.O.....O.O.O.[ ` _ R I S S S J J H H B B v v A A A A D J D D J K ) ' [ $.%.&.&.-.-.:.:.t.t.:.:.:.:.;.;.-.",
"0.5.5.5.=.*.@.@.@.O.O.O.[ ` ` ` [ ` _ ( ( R S S S S J J K J H A A A A J J K / / / / / ( ) ' $.%.&.&.-.;.:.:.:.t.t.>.:.:.-.-.-.-.",
"d.d.5.5.=.=.*.@.@.O.O.O.[ ` ` ` ` _ ( ( ( R R S S K K K K K K K J J J K R ( ) { { { ) ) ' [ %.&.&.-.;.:.:.:.:.:.>.:.:.-.-.-.-.-.",
"d.d.d.5.5.4.=.=.@.@.O.O...` ` _ ( ( ( ( _ ( R R R R R K K L E E K K K ( ) ' ] [ [ [ [ [ $.$.&.-.-.-.;.;.;.;.:.:.:.;.-.-.-.-.-.-.",
"d.d.d.d.0.5.5.=.*.@.@.O.O.` ` _ R R ( ( ( ( R R R R R R E E ) ) ) ( ( ) { [ [ $.$.$.$.$.$.&.-.-.-.-.;.;.;.;.-.;.;.-.-.-.&.-.-.-.",
"l.z.d.d.d.0.5.>.=.*.*.@.O.[ ` _ ) ) R R R R R R R ( ( ( ) ) ` ` ) ) ) { [ [ $.$.$.$.%.&.&.&.-.-.-.-.&.;.;.;.;.;.;.;.&.&.&.&.&.&.",
"l.l.d.d.d.a.5.5.=.=.=.*.O...` ` ` ) ( R R R R R R ) ) ) ) ` ` ] ` _ _ ] [ $.$.%.%.&.&.&.&.&.-.-.-.&.&.;.;.;.;.;.;.;.&.&.&.&.%.%.",
"c.l.z.d.d.0.5.5.=.=.=.*.*.O...[ ` ` ) ( R R R R ) ) ( ( ) ` ] ] ] ] ] ] $.$.%.%.&.&.&.&.&.&.&.&.&.&.&.&.&.&.;.;.;.;.;.&.&.%.%.%.",
"c.c.z.d.d.5.5.5.5.=.=.*.*.*.O.O.[ ` ` _ ( R ( ( ) ) ( ( ) ` ] ] ] ] ] [ $.$.%.&.&.&.&.&.&.&.&.&.&.%.%.%.&.&.&.&.&.&.&.&.%.%.%.$.",
"C.x.z.d.i.6.5.5.5.4.*.*.*.*.O.O.O.O.O.} ` ` ) ) ( ( ( ) ) ] ] ] ] ] [ $.$.$.%.%.&.&.&.&.&.&.&.&.&.%.%.%.%.&.&.&.&.&.%.%.%.%.[ [ ",
"C.c.z.d.6.6.5.5.5.4.*.*.*.*.O.O.O.O.O.O.} ` _ ) ( ( ) ) ) ] ] ] ' [ [ $.$.$.%.%.&.&.&.%.&.&.&.&.%.%.%.%.%.%.%.%.%.%.%.%.%.%.[ [ "
};
