/* XPM */
static char *_ef850d5c276463f831213fd020d8847iOne2ViAkxHjijsV[] = {
/* columns rows colors chars-per-pixel */
"64 64 146 2 ",
"   c None",
".  c #000000",
"X  c #070809",
"o  c #0B0C0C",
"O  c #0D0F10",
"+  c #0E1112",
"@  c #111314",
"#  c #16191B",
"$  c #191C1E",
"%  c #191E20",
"&  c #1E2225",
"*  c #212526",
"=  c #282E2F",
"-  c #272E32",
";  c #2C3234",
":  c #30373C",
">  c #353E3F",
",  c #363E42",
"<  c #3B4446",
"1  c #3D4649",
"2  c #40494B",
"3  c #434D54",
"4  c #4A5556",
"5  c #46515A",
"6  c #4B555A",
"7  c #4F5B64",
"8  c #4F5E6F",
"9  c #515E6A",
"0  c #4F5E70",
"q  c #505F71",
"w  c #546164",
"e  c #5E6A6E",
"r  c #536273",
"t  c #596676",
"y  c #5A6973",
"u  c #576778",
"i  c #586778",
"p  c #5B6B7A",
"a  c #5D707C",
"s  c #606D70",
"d  c #637074",
"f  c #65757C",
"g  c #6B777A",
"h  c #6B7A7E",
"j  c #637483",
"k  c #697784",
"l  c #677885",
"z  c #6A7A86",
"x  c #6A7C89",
"c  c #6F8084",
"v  c #6F818D",
"b  c #72858E",
"n  c #7A878D",
"m  c #79898F",
"M  c #748690",
"N  c #758996",
"B  c #798C94",
"V  c #7C8F98",
"C  c #7B9097",
"Z  c #7E9199",
"A  c #81939C",
"S  c #85999E",
"D  c #8597A0",
"F  c #879CA0",
"G  c #879CA1",
"H  c #869BA5",
"J  c #889DA2",
"K  c #889DA3",
"L  c #899DA3",
"P  c #889EA3",
"I  c #8A9FA3",
"U  c #899EA4",
"Y  c #8A9EA4",
"T  c #8A9FA4",
"R  c #8B9FA5",
"E  c #8D9FA6",
"W  c #8E9FA7",
"Q  c #8B9EA5",
"!  c #8B9FA8",
"~  c #8BA0A6",
"^  c #8BA0A7",
"/  c #8DA0A6",
"(  c #8CA1A6",
")  c #8CA1A7",
"_  c #8FA1A7",
"`  c #8DA3A7",
"'  c #8EA2A7",
"]  c #8CA1A6",
"[  c #8EA0A8",
"{  c #8FA0A8",
"}  c #8EA1A8",
"|  c #8FA2A8",
" . c #8EA3A8",
".. c #8EA4A8",
"X. c #8FA4A8",
"o. c #8FA5A9",
"O. c #8CA1A8",
"+. c #90A2A9",
"@. c #90A3AA",
"#. c #91A3AB",
"$. c #92A3AB",
"%. c #91A5AA",
"&. c #92A4AB",
"*. c #92A5AB",
"=. c #91A6AA",
"-. c #91A7AA",
";. c #91A6AB",
":. c #91A7AB",
">. c #92A7AA",
",. c #92A7AB",
"<. c #93A5AC",
"1. c #91A6AC",
"2. c #94A7AD",
"3. c #92A6AA",
"4. c #92A8AB",
"5. c #93A8AB",
"6. c #92A8AC",
"7. c #93A8AC",
"8. c #93A9AC",
"9. c #93A9AD",
"0. c #93AAAC",
"q. c #93AAAD",
"w. c #94A9AC",
"e. c #94A8AD",
"r. c #94A9AD",
"t. c #94AAAC",
"y. c #94AAAD",
"u. c #94ABAD",
"i. c #95ABAD",
"p. c #95AAAE",
"a. c #95ABAE",
"s. c #95ABAF",
"d. c #95ACAE",
"f. c #96ACAE",
"g. c #96ACAF",
"h. c #96ADAF",
"j. c #94A9AD",
"k. c #96ACB0",
"l. c #97ADB0",
"z. c #97AEB1",
"x. c #97A9B0",
"c. c #98ADB1",
"v. c #98AEB1",
"b. c #98AEB2",
"n. c #98AFB2",
"m. c #9AB0B4",
/* pixels */
"                                                                                                                                ",
"                                                                                                                                ",
"                                                                                                                                ",
"                                                                                                                                ",
"                                                                                                                                ",
"                                                                                                                                ",
"                                                                                                                                ",
"                                                                                                                                ",
"                                                                                                                                ",
"                      . . . . . . . . . . . . . . . . . . . . . . . . . . . . . . . . . . . . . . . . .                         ",
"                  . . . . . . . . . . . . . . . . . . . . . . . . . . . . . . . . . . . . . . . . . . . . . .                   ",
"              . . . . . . . . . . . . . . . . . . . . . . . . . . . . . . . . . . . . . . . . . . . . . . . . .                 ",
"            . . . . . . . . . . . . . . . . . . . . . . . . . . . . . . . . . . . . . . . . . . . . . . . . . . . .             ",
"          . . . . . . @ < < < < < < < < < < < < < < < < < < < < < < < < < < < < < < < < < < < < < 1 1 - X . . . . . .           ",
"        . . . . . % 6 h 8.v.k.v.v.v.v.v.v.v.v.v.v.v.v.v.v.v.v.v.v.v.v.v.v.v.v.v.v.v.v.v.v.v.v.v.v.k.v.A e 1 o . . . . .         ",
"      . . . . + < m 2.v.8.4.8.8.8.8.8.8.8.8.8.8.8.8.8.8.8.8.8.8.8.8.8.8.8.8.8.8.8.8.8.8.8.8.8.8.8.8.8.y.m.) s ; X . . .         ",
"      . . . X 3 b ;.8.8.y.y.y.y.y.y.8.y.y.y.y.y.y.y.y.y.y.y.y.y.y.y.y.y.y.y.y.y.y.y.y.y.y.8.y.y.y.y.y.8.4.8.) A , . . . .       ",
"    . . . . : y u B y.8.8.y.8.8.y.y.y.y.y.y.y.y.y.y.y.y.y.y.y.y.y.y.y.y.y.y.y.y.y.y.y.y.y.y.y.y.y.y.8.8.y.S j v f $ . . .       ",
"    . . . # z k u A y.y.y.y.y.8.I C B B B B B B B B B B B B B B B B B B B B B B B B B B B B B V S o.y.8.f.C r 8 f w o . . .     ",
"    . . . 1 1.S S ;.4.I C C V x p i u u u u u u u u u u u u u u u u u u u u u u u u u u u u u t p l B ) y.+.M l I c # . . .     ",
"    . . X w v.y.f.S v p u u u r q r r r r r r r r r r r r r r r r r r r r r r r r r r r r r r r r r u l V 1.+. .y.S ; . . .     ",
"  . . . O d k.4.C p r q q q q q q r r r r r r r r r r r r r r r r r r r r r r r r r r r r r r r r r r r i B +.2.8.k.4 . . .     ",
"  . . . * S y.4.C l j j j j l z z z l l l l l l l l l l l l l l l l l l l l l l l l l z z z z z p p u r r z ) y.8.f.d + . .     ",
"  . . . = 8.8.y.y. .^ ^ ^ )  .+.+.R F F F F F F F F F F F F F F F F F F F F F F F F F W  . . . .R I S A A R 4.y.8.f.f @ . .     ",
"  . . . = ;.8.8.8.y.y.f.f.8.;.W S N M M M M M M M M M M M M M M M M M M M M M M M M M B B B B B I o.f.k.f.y.y.y.8.f.f @ . .     ",
"  . . . = ;.y.y.8.y.;.S B v v j u r q q q q q q q q q q q q q q q q q q q q q q q q q r r r r r u l B R y.8.8.y.8.f.f @ . .     ",
"  . . . = ;.8.y.;.C z i q q q r r r r r r r r r r r r r r r r r r r r r r r r r r r r r r r r r r r q j A y.y.y.8.f.f @ . .     ",
"  . . . = ;.y.8.V i 0 r r r r r r r r r r r r r r r r r r r r r r r r r r r r r r r r r r r r r r r q q u b o.y.8.f.f @ . .     ",
"  . . . = ;.y.4.V x x z z z z z z z z z z z z z z z z z z z z z z z z z z z z z z z z z z z j p p p i i u z ) y.8.f.f @ . .     ",
"  . . . ; 4.8.8.8.4.4.4.;.;.;.8.y.;.) ) ) ) ) ) ) ) ) ) ) ) ) ) ) ) ) ) ) ) ) ) ) ) ) ) o.y.y.8.4.;.R S G  .8.y.8.f.h @ . . .   ",
"  . . . > 4.8.y.y.8.y.y.y.y.y.^ C v l l l l l l l l l l l l l l l l l l l l l l l l l l z b b M C  .y.y.y.y.y.y.8.y.A * . . .   ",
"  . . . < 4.8.y.y.y.8.S b l l f u 0 q 0 q q q q q q q q q q q q q q q q q q q q q q q q q 0 0 0 u j M ^ 8.y.8.y.y.8.8.= . . .   ",
"  . . . < 4.8.y.1.W N i r q q q r r r r r r r r r r r r r r r r r r r r r r r r r r r r r r r r r r r p N +.2.1.y.8.;.= . . .   ",
"  . . . < 4.8.y.A i r 0 0 q q q q q q q q q q q q q q q q q q q q q q q q q q q q q q q q r q q q q q 0 r x  .2.y.y.;.= . . .   ",
"  . . . < 4.8.8.S x l z z z z z z z z z z z z z z z z z z z z z z z z z z z z z z z z z z z z z z j j j j x R 2.y.y.;.= . . .   ",
"  . . . < 4.8.8.y.8.) ;.;.;.;.;.;. .! ^ ^ ^ ^ ^ ^ ^ ^ ^ ^ ^ ^ ^ ^ ^ ^ ^ ^ ^ ^ ^ ^ ^ ^ o.;.;.;.;.;.R R R ^ ;.y.8.y.y.;.= . . .   ",
"  . . . < 4.8.y.8.8.y.y.y.4.4.o.G B N N N N N N N N N N N N N N N N N N N N N N N N N B B B B C R ;.y.y.y.y.8.y.y.y.;.= . . .   ",
"  . . . < 4.8.y.8.y.y.o.C b b l u r r r r r r r r r r r r r r r r r r r r r r r r r r r r r u r i z C o.y.8.y.y.y.y.;.= . . .   ",
"  . . . < 4.8.8.y.;.V l r r r r r r r r r r r r r r r r r r r r r r r r r r r r r r r r r r r r r r i l A y.y.8.y.y.;.= . . .   ",
"  . . . < 4.y.8.A j u 8 q q q q q q q q q q q q q q q q q q q q q q q q q q q q q q q q q q q q q r q 0 u b o.y.y.y.;.= . . .   ",
"  . . . < 4.y.4.C j i i i i i i i i i i i i i i i i i i i i i i i i i i i i i i i i i i i i i i i u i i u l ) y.8.y.;.= . . .   ",
"  . . . < 4.8.8.4.;.o.o. . . . .;.;.;.;.;.;.;.;.;.;.;.;.;.;.;.;.;.;.;.;.;.;.;.;.;.;.;.;.;.;.;.;.) A S S A I 8.8.y.8.8.= . . .   ",
"  . . . , 4.8.y.y.y.y.2.y.y.2.2.W G A A A A A A A A A A A A A A A A A A A A A A A A A A A A A A W y.y.y.y.y.y.y.1.2.A * . . .   ",
"  . . . ; 4.y.8.8.y.8.+.G S S x j p u i i i i i i i i i i i i i i i i i i i i i i i i i i i i i j x C ;.y.8.8.y.2.x.g @ . . .   ",
"  . . . = ;.8.y.y.R M j i i i r q r r r r r r r r r r r r r r r r r r r r r r r r r r r r r r r q r i z A 8.y.8. . .d @ . . .   ",
"  . . . = ;.y.y.C a r 0 q q 0 q q q q q q q q q q q q q q q q q r q q q q q q q q q q q q q q q r r q q i C 4.^ l p 7 @ . . .   ",
"  . . . = 4.o.R B j j j j j j j j j j j j j j j j j j j j j j j j j j j j j j j j j j j j j j j i i i i i l ) C u r 5 @ . . .   ",
"  . . . = ) b f b W W H H H H H H H H H H H H H H H H H H H H H H H H H H H H H H H H H H H R W S S S S S G ;.I i i 9 @ . . .   ",
"  . . . # z l 9 f 2.2.8.8.8.8.8.8.8.8.8.8.8.8.8.8.8.8.8.8.8.8.8.8.8.8.8.8.8.8.8.8.8.8.8.8.8.8.y.y.y.y.y.y.y.y.4.G G 7 o . .     ",
"  . . . . - y z ) 1.1.8.8.y.8.8.8.8.8.8.8.8.8.8.8.8.8.8.8.8.8.8.8.8.8.8.8.8.8.8.8.8.8.8.8.8.8.8.8.8.8.8.8.8.y.f.+.f @ . . .     ",
"    . . . o ; 6 b y.2.y.y.y.y.y.y.y.y.y.y.y.y.y.y.y.y.y.y.y.y.y.y.y.y.y.y.y.y.y.y.y.y.y.y.y.y.y.y.y.y.y.y.f.I s 1 * . . . .     ",
"      . . . . . & e n m B B B B B B B B B B B B B B B B B B B B B B B B B B B B B B B B B B B B B B B B B b 2 o . . . . .       ",
"      . . . . . . o $ $ % % % % % % % % % % % % % % % % % % % % % % % % % % % % % % % % % % % % % % % % % # X . . . . .         ",
"        . . . . . . . . . . . . . . . . . . . . . . . . . . . . . . . . . . . . . . . . . . . . . . . . . . . . . . .           ",
"          . . . . . . . . . . . . . . . . . . . . . . . . . . . . . . . . . . . . . . . . . . . . . . . . . . . . .             ",
"              . . . . . . . . . . . . . . . . . . . . . . . . . . . . . . . . . . . . . . . . . . . . . . . . .                 ",
"                                                                                                                                ",
"                                                                                                                                ",
"                                                                                                                                ",
"                                                                                                                                ",
"                                                                                                                                ",
"                                                                                                                                ",
"                                                                                                                                ",
"                                                                                                                                "
};
