/* XPM */
static char *d9f282ae32204406cf3bc380ec33bf68GReXnWmkNqdu8lCq[] = {
/* columns rows colors chars-per-pixel */
"64 64 194 2 ",
"   c None",
".  c #390F06",
"X  c #441506",
"o  c #461E14",
"O  c #531F10",
"+  c #4E2214",
"@  c #5C2E1D",
"#  c #592616",
"$  c #57351E",
"%  c #5A361E",
"&  c #5A3721",
"*  c #5C3A23",
"=  c #593A2A",
"-  c #622F21",
";  c #633525",
":  c #673827",
">  c #6C3927",
",  c #653D2B",
"<  c #6D3C2C",
"1  c #683728",
"2  c #713E2C",
"3  c #7A3A25",
"4  c #64432C",
"5  c #72402E",
"6  c #78422F",
"7  c #6E4131",
"8  c #6B4933",
"9  c #6E4E39",
"0  c #644837",
"q  c #744432",
"w  c #794532",
"e  c #754B34",
"r  c #7C4935",
"t  c #7C4D3B",
"y  c #74543E",
"u  c #7A523C",
"i  c #6C5142",
"p  c #715443",
"a  c #7A5442",
"s  c #775842",
"d  c #7A5B44",
"f  c #7B5D49",
"g  c #824E3B",
"h  c #8F4F38",
"j  c #804936",
"k  c #924E33",
"l  c #83513D",
"z  c #89543F",
"x  c #90583E",
"c  c #845442",
"v  c #8A5643",
"b  c #845A45",
"n  c #8C5A46",
"m  c #865A4B",
"M  c #8C5D4B",
"N  c #915D46",
"B  c #935D4A",
"V  c #9A5E47",
"C  c #86644C",
"Z  c #8C634D",
"A  c #93624D",
"S  c #95674F",
"D  c #8E6352",
"F  c #8D6A52",
"G  c #866551",
"H  c #936553",
"J  c #996652",
"K  c #946B55",
"L  c #9C6A55",
"P  c #946B5A",
"I  c #9C6D5B",
"U  c #95735C",
"Y  c #9E715C",
"T  c #A0634C",
"R  c #A36C55",
"E  c #AB6C54",
"W  c #A26E5A",
"Q  c #A76A55",
"!  c #A3725D",
"~  c #AA745D",
"^  c #AC7B5E",
"/  c #A67156",
"(  c #B5755C",
")  c #8D7060",
"_  c #9D7262",
"`  c #9B7C67",
"'  c #9C7C6B",
"]  c #967966",
"[  c #A37563",
"{  c #A97662",
"}  c #A57965",
"|  c #AB7A65",
" . c #A27768",
".. c #A57B6A",
"X. c #AB7D6A",
"o. c #B27C65",
"O. c #B27E6A",
"+. c #B97F6A",
"@. c #B87A62",
"#. c #AA7F71",
"$. c #9E826F",
"%. c #AE816D",
"&. c #A28069",
"*. c #B38066",
"=. c #B3826D",
"-. c #BA836D",
";. c #A58575",
":. c #AD8272",
">. c #AE8A76",
",. c #AC8C7C",
"<. c #A6867A",
"1. c #B38573",
"2. c #BA8672",
"3. c #B68975",
"4. c #BB8A75",
"5. c #B38778",
"6. c #B58A7A",
"7. c #BB8D7B",
"8. c #BD917D",
"9. c #C1876D",
"0. c #C38A74",
"q. c #C28E7A",
"w. c #C08773",
"e. c #C3927D",
"r. c #CA927C",
"t. c #A88C82",
"y. c #BA8F80",
"u. c #AF9186",
"i. c #B69483",
"p. c #BC9382",
"a. c #B79B89",
"s. c #C49583",
"d. c #CA9681",
"f. c #C59985",
"g. c #CB9A84",
"h. c #C59B8A",
"j. c #CC9D8A",
"k. c #C39788",
"l. c #D19C87",
"z. c #D19E89",
"x. c #C99F90",
"c. c #C7A08D",
"v. c #CCA18D",
"b. c #D3A38D",
"n. c #CDA492",
"m. c #CFA996",
"M. c #CEA898",
"N. c #C9A496",
"B. c #D3A692",
"V. c #D5A995",
"C. c #D9AA94",
"Z. c #D4AC9A",
"A. c #D9AE9A",
"S. c #D6B09E",
"D. c #DBB19D",
"F. c #D3AEA1",
"G. c #D6B2A3",
"H. c #DBB5A3",
"J. c #DDB9A5",
"K. c #D7B5A8",
"L. c #DDBAAA",
"P. c #DEBEB0",
"I. c #E0B6A1",
"U. c #E1BAA5",
"Y. c #E1BEAB",
"T. c #DFC1B2",
"R. c #E3C1AD",
"E. c #E4C4B3",
"W. c #E8C7B1",
"Q. c #E6C8B6",
"!. c #E7C8B6",
"~. c #E9C9B7",
"^. c #E4C7B8",
"/. c #E6C9BA",
"(. c #E6C9BB",
"). c #E9CDBA",
"_. c #E9CDBE",
"`. c #EDCFBF",
"'. c #E9CCBC",
"]. c #ECD0BF",
"[. c #E6CDC1",
"{. c #E9CEC0",
"}. c #EAD1C2",
"|. c #EBD3C5",
" X c #ECD2C5",
".X c #EBD3C5",
"XX c #EED6C9",
"oX c #ECD5CA",
"OX c #EFDACE",
"+X c #EFD9CC",
"@X c #F0DACD",
"#X c #EEDAD0",
"$X c #F1DDD3",
"%X c #F3E2DB",
/* pixels */
"                                                                                                                                ",
"                                                                                                                                ",
"                                                                                                                                ",
"                                                                                                                                ",
"                                                                                                                                ",
"                                                                                                                                ",
"                                                                                                                                ",
"                                                                                                                                ",
"                                                      XX@X      ].H.B.L.!.E.Y.                                                  ",
"                                        _.).].{.Y.`.`.!._.@XOX}.E.g.=.V./.R.H.V.j.v.                                            ",
"                                  U.Y.'.b.g.H.B.C._.!.C.r.d.b.b.r.o.1././.j.2.4.v.E.W.D.E.                                      ",
"                              ~.!.b.J.E.A.L.^.K.b.~.$X|.H.+.E -.e.2.Z.'.A.o.1.Z.E._.A.g.A.Y.Y.                                  ",
"                          _.J.J.Y.Y.'.{.Y.C.U.}.J.oX%X(.^.Z.7./._.oX'.R.B.1.L.Y.A.j.O.-.B.A.j.s.                                ",
"                      !.U.A.J.J.C.g.g.d.g.g.b.D.J.A.g.-.L.L.H.XX}..X.XU.q.-.E..XJ.e.4.T.Q.J.n.s.S.m.                            ",
"                    b.L.L.s.J.j.@.+.-.S.E.D.Q._.D.-.Q k./.A.~.$XOX|.E.g.=.s.A.E.OXD.V.|.I.R.H.b.v.7.Z.E.                        ",
"                U.g.g.L.L.s.V.B.L.L.R.OXJ.w.E.%X#XD.f.P.V.U.}./.Y.b.g.V.E.'.H.g.!.Q.b.d.w.V.R.V.1.{ G.R.I.                      ",
"              Y.v.s.d.s.M.n.H.E.L.C.E.$XH.4.Y.|.!.g.2.q.0.U.H.r.@.j._.$X@X!.H.e.V.!.B.O.~ 0.Y.Y.j.8.A.b.z.B.                    ",
"              A.n.S.A.-.f.L.E.E.j.B.E.oXj.e.[.L.0.Q ! O.q.r.( E B.XXXX/.!.Y.H.H.D.C.d.X.[ q.A.C.b.j.n.b.7.2.k.                  ",
"          A.D.V.f.v.E.n.4.g.G.K.d.A.Y./.4.4.|.K.@.j.E.{.Y.e.Q j.'.E.V.d.e.q.2.-.0.A.^.R.D.H.C.r.q.7.4.j.Z.s.f.M.                ",
"        n.g.*.O.2.O.h.j.~ V 1.Z.g.D.^.D.-.2.[.[.L.E._.@XoXV.4.R.}.{.Y.e.W { j.b.D.E.{.W.I.I.D.b.4.{ { Z.Y.B.j.B.                ",
"      B.g.-.O.V.T.4./ j.Z.n.Z.m.4.B.^.H.2.=.K.(.L.Y./._.{.j.-.D.'.XX_.g.{ G.I.A.R.E.R.E.H.B.d.j.B.1.f.XXR.A.h.7.7.              ",
"      4.R R e.V.K.j.j.U.Y._.oXv.W 1.j.A.v.{ -.w.V.!.Y.L.g.E T ( D.$X~.r.G.I.U.@X@X.XR.I.V.4.-.J.R.A.V.E.D.b.b.k.4.n.            ",
"    %.L X.X.W =.5.s.b.C.H.E.[.L.7.J W -.2.J { d.Y.E.V.4.T T X.7.!._.g.B.$XH.XX~.R.R.C.b.z.{ f.}.I.C.s.4.r.2.-.e.h.h.            ",
"    :.[ X.=.{ ! L } 2.4.e.j.H.L.T.N.[ B V 4.b.A.Y.V.=.E e.L.Q._.Y.9.( /._.Y.R.z.b.C.d.B.b.=.Z.'.C.z.g.B.D.B.j.s.e.f.h.          ",
"    8.6.=.4.s.v.c.I A A L X.h.G.K.[.T.X.=.K.j.e.B.q.E Z.U.b.r.w.~ k O.{.D.B.b.-.4.g.j.B.b.4.n.R.b.g.7.b.C.b.v.v.7.7.f.m.        ",
"  :.1.f.=.L ~ 4.7.H J L n n L 4.Z.L.D.4.f.K.4.! q.O.g.oXJ.V.A.q.h 3 f.C.e.q.7.R 7.B.l.d.q.[ h.H.d.s.7.s.j.g.=.-.v.k.p.v.M.      ",
"  i.7.X.! 8.e.! B [ k.p.p.p.1.1.G.V.4.R e.E.h.L X.-.H.~.!._.Y.D.-.v v.q.R ! [ N f.g.0.O.} A n.b.4.{ 1.n.j.X.1.f.g.n.f.j.n.      ",
"  p.%.A ! 4.v.m.7.7.7.L 1.v.V.J.L.s.! v =.L.Z.{ L -.C.d.d.l.0.-.| L e.q.X.J M v s.q.| I [ J s.q.1.I 5.b.j.=.m.v.-.e.8.f.h.      ",
"  [ M I X.L 1.Z.m.h.h.[ e.B.A.V.e.{ M w J H.L.4.N O.d.2.q.4./ V [ J -.q.4._ t B e.-.! [ :.L 4.4.1.[ k.e.4.| s.e.X.5.4.7.p.h.    ",
"i.%.[ e.s.A A n.m.h.J.m.d.g.d.2.! n 2 1 I b.J.s.B | q.O.X.| N v %.! ! O.O.[ t H =.{ X.5.1.A 1.-.1.! / | H [ X.1.X.:.7.1.2.v.    ",
"i.3.7.4.[ | %.h.k.e.j.7.X.| L v w 2 > m 7.d.B.d./ ! =.[ I } I l [ 1.y.5.[ H w J _ } %.=.[ v [ =.7.s.X.J _ 5.L X.>.:.7.%.[ f.G.  ",
"1.%.| ! %.1.7.7.X.X.[ H c w > - P :.#.5.8.2.g.q.~ ! ! X.%.X.Y c t L | | I g M N.k.7.1.X.L t  .7.q.q.7.7.p.:.H 1.p.7.5.7.7.8.Z.  ",
"[ [ H L %.I X.3.#.P b c t m [ 1.Z.7.} X.=.| 4.2.{ L X.X.[ I M q # 1 q 2 < c h.V.d.4.2.=.D < } 7.4.1.:.3.3.I M 1.4.y.5.1.p.3.x.  ",
".._ ..[ [ _ L } X._ b :.h.7.! 1.q.~ A I X.W X.O.W g [ X.H c 2 t [ >.I m D 1.s.q.-.O.| | c m I =.=.[ X.1.:.D c } 5.7.3.7.p.8.n.G.",
",.' _ P P [ _ Z D c M 1.s.n.| { | A l A X.A [ | J w H [ v 2 [ G.n.4.! L 7.k.1.{ [ [ [ H w X.X.W ! I X.X.J P M _ :.3.1.1.1.7.4.V.",
"  <. .H m H P b : ; P X.-.-.=.[ ! t > c | I X.[ A t H v j O.G.A.g.f.h.n.Z.h.3.[ J I H 2 b :.4.X.H H D t b  .n H  .>. .H W [ :.n.",
"  t.;...P H H t t _ _ [ ! A L [ ! w + , Y %.%.} M r 5 n 4.j.g.e.q.s.j.j.s.4.-.| I D < t I X.| [ [  .m e I ..b D _ #.y.6.p.h.h.G.",
"    <. ...:.:.H } 7.X._ I M t t t @ . o 7 l n c q @ t 7.g.s.4.O.| O.4.-.O.| | { _ < < P [ [ Y [ X.X.m D [ :.D D [ 1.k.7.8.h.x.F.",
"    u..._ `  .I L %.1. ._ H b q @ X o a [  .H 2 O - I -.4.-.X.X.| } } [ I I I I c 7 t [ X. .[ [ X. .I I } :.H I  .7.7.1.7.k.n.F.",
"      ,._ ' ....[ L [ [ _ P D a : ; I 4.8.3. .n H 7.f.O.W [ _ _ I A c g c n H L I D c [ X.X.X. . ...H M X.L P ..1.5.I L X.4.h.Z.",
"        :. . ...} L n n Z H D t w ! 1.X.I A I ! g.B.j.s.W v < q c H _ [  .X.%.%.%.M 2 M H H A H H c t P P H  .%.7.3.1.X.X.O.e.  ",
"          >. ...:.X.Y J H H b t ! 1.X.! z B 1.O.q.0.-.=.X.L t m ..:.:.X.X.X.X.[ n w D [ [ [ [ } [ J H _ I  .:.1.4.4.s.k.s.h.B.  ",
"                    >.} [     } 1.=.! z r 4.q.X.=.X.} [ [ _ P b [ X.} [ I A n l l D _ [ } } X.%.1.X.H _ } X.| ~ | 4.s.e.e.g.Z.  ",
"                              =.=.! A 6 | 2.O.W } I [ I P } Y B X.{ L J I L Y Y [  .[ [ Y Y [ | =.3.A n J [ X.1.7.q.O.~ o.e.    ",
"                            8.=.{ Y n l X.{ [ I L L } J I X.[ J X.-.{ L J L R L A n g r l I | =.4.4.I Y X.1.{ { | O.2.4.e.V.    ",
"                            3.X.! ! H A | I L H v I } ! X.| [ J | O.^ ^ ! L N z z n A H H ! X.-.2.{ L [ %.1.| / =.4.e.d.B.      ",
"                            8.X.! I I J %.I n v A L [ } X.| | ! } | | ^ ^ ! ! } } } [ } | X.=.-.=.! { X.%.=.2.4.e.f.v.B.        ",
"                              %.I L L L X./ ! %.| ! L ! | I L Y Y L { *.~ N x J ~ { X.{ H b t e b Z A ! %.=.=.=.p.              ",
"                                Y ! X.{ X.=.=.{ ! ! Y L n z A A n ! { / R / R R ~ ^ A e * % * 4 8 e e b S K U } a.              ",
"                                ..! } | / X.| ! I A n r v ! } | { =.2.2.! Z u u u 4 % $ $ * 8 s b C F K K U U >.                ",
"                                  %.%.X.! L ! } ! ! Y n W X./ ~ -.7.    i = * * & & * * 4 s G F F F F F F U &.a.                ",
"                                      1.| L N I ! { } A { =.=.2.          0 * 4 8 9 9 y d C G G C C F P U ` ,.                  ",
"                                          | ! [ ! } } ! =.7.              0 4 8 9 y s s y d C K K F K ] $.                      ",
"                                                                            0 p f d d d f G P U U U '                           ",
"                                                                                  p 9 s G U `                                   ",
"                                                                                    = 4 ) ;.                                    ",
"                                                                                      f ]                                       ",
"                                                                                                                                ",
"                                                                                                                                ",
"                                                                                                                                ",
"                                                                                                                                ",
"                                                                                                                                ",
"                                                                                                                                ",
"                                                                                                                                "
};
